<?xml version="1.0" encoding="UTF-8"?>
<svg id="svg2" version="1.0" width="150" height="71.670998" xmlns="http://www.w3.org/2000/svg">
  <path fill="none" stroke="#fff" id="nor_gate" stroke-linecap="round" d="m 18.584072,1.3274336 v 0.1672566 c 5.838053,10.1283188 9.209733,21.8256638 9.209733,34.3460168 0,12.523009 -3.37168,24.220354 -9.209733,34.343363 v 0.159292 h 35.761062 c 25.513274,0 47.787606,-13.89823 59.734516,-34.502655 C 102.13274,15.238938 79.858408,1.3274336 54.345134,1.3274336 Z M 124.77876,35.843362 c 0,2.930974 -2.38938,5.309735 -5.30973,5.309735 -2.92036,0 -5.30974,-2.378761 -5.30974,-5.309735 0,-2.930973 2.38938,-5.309734 5.30974,-5.309734 2.92035,0 5.30973,2.378761 5.30973,5.309734 z m 0,-0.0027 h 23.89381 M 1.3274336,18.58407 H 25.22124 M 1.3274336,53.097344 H 25.22124" style="stroke-width:3" />
</svg>